<?xml version="1.0" encoding="UTF-8" standalone="no"?>
<!-- Created with Inkscape (http://www.inkscape.org/) -->

<svg
   width="87.740845"
   height="112.80966"
   viewBox="0 0 87.740845 112.80966"
   version="1.1"
   id="svg5"
   xml:space="preserve"
   xmlns="http://www.w3.org/2000/svg"
   xmlns:svg="http://www.w3.org/2000/svg"><defs
     id="defs2" /><g
     id="layer1"
     transform="translate(-748.12091,-33.595165)"><g
       id="g1463"
       transform="translate(0,-3.4678563)"><path
         d="m 810.79294,108.09133 v 22.97975 l 6.2672,6.26719 6.26721,-6.26719 v -22.97975 z m -50.13763,0 v 22.97975 l 6.2672,6.26719 6.26721,-6.26719 v -22.97975 z m 25.06882,12.5344 v 22.97974 l 6.2672,6.26722 6.2672,-6.26722 v -22.97974 z m 25.06881,-11.90768 v 22.35303 l 6.2672,6.26719 6.26721,-6.26719 v -22.35303 z"
         id="path437-7-3-3"
         style="fill:#186988;fill-opacity:1;stroke-width:0.417813" /><circle
         cx="791.99133"
         cy="80.933449"
         r="43.870426"
         id="circle435-5-6-6"
         style="fill:#29789a;fill-opacity:1;stroke-width:0.417813" /><circle
         cx="791.99133"
         cy="80.933449"
         r="31.33602"
         fill="#c6202e"
         id="circle441-3-0-7"
         style="fill:#186988;fill-opacity:1;stroke-width:0.417813" /><path
         d="m 791.99133,71.866892 9.10834,-6.601454 -1.25344,11.155621 10.27821,4.512387 -10.27821,4.554169 1.25344,11.155621 L 791.99133,90 l -9.06655,6.643236 1.21166,-11.155621 -10.32,-4.554169 10.32,-4.512387 -1.21166,-11.155621 z"
         fill="#f8f1e0"
         id="path443-5-6-5"
         style="fill:#8bbdd9;fill-opacity:1;stroke-width:0.417813" /></g></g></svg>
