<?xml version="1.0" encoding="UTF-8" standalone="no"?>
<!-- Created with Inkscape (http://www.inkscape.org/) -->

<svg
   width="164.37511"
   height="55.379021"
   viewBox="0 0 164.37511 55.379021"
   version="1.1"
   id="svg5"
   inkscape:version="1.2.2 (b0a8486541, 2022-12-01)"
   xml:space="preserve"
   sodipodi:docname="hacktulsa.logo.svg"
   xmlns:inkscape="http://www.inkscape.org/namespaces/inkscape"
   xmlns:sodipodi="http://sodipodi.sourceforge.net/DTD/sodipodi-0.dtd"
   xmlns="http://www.w3.org/2000/svg"
   xmlns:svg="http://www.w3.org/2000/svg"><sodipodi:namedview
     id="namedview7"
     pagecolor="#ffffff"
     bordercolor="#000000"
     borderopacity="0.25"
     inkscape:showpageshadow="2"
     inkscape:pageopacity="0"
     inkscape:pagecheckerboard="0"
     inkscape:deskcolor="#d1d1d1"
     inkscape:document-units="px"
     showgrid="false"
     inkscape:zoom="1.9255192"
     inkscape:cx="527.64989"
     inkscape:cy="98.155344"
     inkscape:window-width="1366"
     inkscape:window-height="699"
     inkscape:window-x="0"
     inkscape:window-y="0"
     inkscape:window-maximized="1"
     inkscape:current-layer="g2517"
     showguides="false" /><defs
     id="defs2" /><g
     inkscape:label="Layer 1"
     inkscape:groupmode="layer"
     id="layer1"
     transform="translate(-7.0000019,-62.310486)"><g
       id="g351"><path
         d="m 37.766124,97.178758 v 11.280912 l 3.076612,3.07661 3.076612,-3.07661 V 97.178758 Z m -24.612898,0 v 11.280912 l 3.076612,3.07661 3.076612,-3.07661 V 97.178758 Z m 12.306449,6.153222 v 11.28091 l 3.076612,3.07662 3.076612,-3.07662 v -11.28091 z m 12.306449,-5.845561 v 10.973251 l 3.076612,3.07661 3.076612,-3.07661 V 97.486419 Z"
         id="path437"
         sodipodi:nodetypes="cccccccccccccccccccccccc"
         style="fill:#005672;fill-opacity:1;stroke-width:0.205107"
         inkscape:export-filename="./path437.svg"
         inkscape:export-xdpi="96"
         inkscape:export-ydpi="96" /><circle
         cx="28.536287"
         cy="83.846771"
         r="21.536285"
         id="circle435"
         style="fill:#0e9273;fill-opacity:1;stroke-width:0.205107" /><circle
         fill="#c6202e"
         id="circle441"
         style="fill:#007256;fill-opacity:1;stroke-width:0.205107"
         r="15.383061"
         cy="83.846771"
         cx="28.536287" /><path
         d="m 28.536287,79.39594 4.471343,-3.240698 -0.615322,5.476369 5.045644,2.215161 -5.045644,2.235672 0.615322,5.476369 -4.471343,-3.261209 -4.450832,3.261209 0.594812,-5.476369 -5.066155,-2.235672 5.066155,-2.215161 -0.594812,-5.476369 z"
         fill="#f8f1e0"
         id="path443"
         style="fill:#e1f4ef;fill-opacity:1;stroke-width:0.205107" /></g><g
       aria-label="tulsa
hack club"
       id="text1467"
       style="font-weight:900;font-size:25.3072px;line-height:0.8;font-family:Metropolis;-inkscape-font-specification:'Metropolis Heavy';letter-spacing:0px;fill:#002e45;stroke-width:4.97288;paint-order:stroke markers fill;stop-color:#000000"><path
         d="m 64.985696,86.216575 c -0.278379,0.278379 -0.784523,0.480837 -1.341281,0.480837 -0.733909,0 -1.341282,-0.657987 -1.341282,-1.569046 v -7.516239 h 3.087478 V 75.486323 H 62.303133 V 71.8927 h -2.454798 v 3.593623 h -1.973962 v 2.125804 h 1.973962 v 7.693389 c 0,2.100497 1.417203,3.568315 3.441779,3.568315 0.936366,0 1.89804,-0.354301 2.606641,-0.936366 z"
         style="font-weight:500;-inkscape-font-specification:'Metropolis Medium'"
         id="path1202" /><path
         d="m 76.905366,75.486323 v 8.123611 c 0,1.720889 -1.61966,3.087478 -3.618929,3.087478 -1.771504,0 -2.98625,-1.341282 -2.98625,-3.315243 v -7.895846 h -2.454798 v 8.326068 c 0,3.011557 1.999269,5.06144 4.884289,5.06144 1.796812,0 3.416472,-0.911059 4.175688,-2.227034 v 1.923348 h 2.505413 V 75.486323 Z"
         style="font-weight:500;-inkscape-font-specification:'Metropolis Medium'"
         id="path1204" /><path
         d="m 82.346422,88.570145 h 2.505412 V 70.880412 h -2.505412 z"
         style="font-weight:500;-inkscape-font-specification:'Metropolis Medium'"
         id="path1206" /><path
         d="m 92.418698,88.873831 c 2.859714,0 4.960211,-1.569046 4.960211,-4.049152 0,-2.606641 -2.277648,-3.315243 -4.454067,-3.947923 -2.201726,-0.683294 -3.087478,-0.986981 -3.087478,-1.999269 0,-1.088209 1.062902,-1.670275 2.378877,-1.670275 1.189438,0 2.505412,0.45553 3.770772,1.26536 l 1.062903,-1.771504 c -1.417203,-0.936366 -3.138093,-1.518432 -4.833675,-1.518432 -2.758485,0 -4.757754,1.569046 -4.757754,3.97323 0,2.125805 1.493125,2.98625 4.504682,3.821388 1.670275,0.455529 3.036864,0.860444 3.036864,2.100497 0,1.062903 -1.012288,1.771504 -2.556028,1.771504 -1.44251,0 -3.011556,-0.582065 -4.454067,-1.644968 l -1.164131,1.72089 c 1.594354,1.26536 3.669544,1.948654 5.592891,1.948654 z"
         style="font-weight:500;-inkscape-font-specification:'Metropolis Medium'"
         id="path1208" /><path
         d="m 105.07232,75.182636 c -1.44251,0 -3.08748,0.379608 -4.96021,1.315975 l 0.93637,1.847425 c 1.13882,-0.582066 2.37887,-1.08821 3.66954,-1.08821 2.60664,0 3.36586,1.746197 3.36586,3.391165 v 0.404915 c -1.26536,-0.430222 -2.65726,-0.708601 -3.94792,-0.708601 -2.88503,0 -5.238595,1.746197 -5.238595,4.352838 0,2.556027 2.075195,4.175688 4.833675,4.175688 1.61966,0 3.39116,-0.733909 4.35284,-2.07519 v 1.771504 h 2.4548 v -7.921154 c 0,-3.239321 -1.94866,-5.466355 -5.46636,-5.466355 z m -0.83514,11.717233 c -1.67027,0 -2.93563,-0.860444 -2.93563,-2.277647 0,-1.417204 1.46782,-2.404184 3.21401,-2.404184 1.29067,0 2.48011,0.17715 3.56832,0.506144 v 1.746196 c -0.43022,1.619661 -2.22704,2.429491 -3.8467,2.429491 z"
         style="font-weight:500;-inkscape-font-specification:'Metropolis Medium'"
         id="path1210" /><path
         d="m 66.858429,95.428396 c -1.644968,0 -3.036864,0.683294 -3.821387,1.796811 V 91.126172 H 58.760125 V 108.8159 h 4.276917 v -7.54154 c 0,-1.290668 1.012288,-2.277649 2.328262,-2.277649 1.315974,0 2.227034,1.012289 2.227034,2.454799 v 7.36439 h 4.099766 v -8.32606 c 0,-2.960946 -1.999269,-5.061444 -4.833675,-5.061444 z"
         style="font-weight:800;-inkscape-font-specification:'Metropolis Ultra-Bold'"
         id="path1212" /><path
         d="m 80.094081,95.428396 c -2.024576,0 -3.897309,0.582066 -5.719427,1.493125 l 1.366588,2.758485 c 1.012288,-0.506144 2.100498,-0.835138 3.264629,-0.835138 1.923347,0 2.859714,0.936366 2.859714,2.201722 v 0.17715 c -1.012288,-0.40491 -2.100498,-0.63268 -3.062171,-0.63268 -3.087479,0 -5.491663,1.79682 -5.491663,4.35284 0,2.48011 2.125805,4.17569 4.934904,4.17569 1.341282,0 2.707871,-0.50614 3.61893,-1.44251 v 1.13882 h 4.125073 v -7.76931 c 0,-3.492389 -2.53072,-5.618194 -5.896577,-5.618194 z m -0.835138,10.856784 c -1.062902,0 -1.872733,-0.58206 -1.872733,-1.46781 0,-0.88575 0.885752,-1.54374 2.024576,-1.54374 0.885752,0 1.746197,0.17715 2.454799,0.50614 v 0.91106 c -0.177151,0.98698 -1.315975,1.59435 -2.606642,1.59435 z"
         style="font-weight:800;-inkscape-font-specification:'Metropolis Ultra-Bold'"
         id="path1214" /><path
         d="m 94.848171,109.11959 c 2.302956,0 4.125074,-0.93637 5.415739,-2.40418 l -2.834404,-2.32827 c -0.607373,0.6833 -1.619661,1.16414 -2.53072,1.16414 -1.72089,0 -3.1634,-1.51844 -3.1634,-3.31525 0,-1.74619 1.44251,-3.239319 3.138093,-3.239319 0.911059,0 1.89804,0.480837 2.480105,1.113519 l 2.834406,-2.353572 c -1.265359,-1.417203 -3.062171,-2.328262 -5.289204,-2.328262 -3.947923,0 -7.288474,3.112786 -7.288474,6.832944 0,3.72016 3.315244,6.85825 7.237859,6.85825 z"
         style="font-weight:800;-inkscape-font-specification:'Metropolis Ultra-Bold'"
         id="path1216" /><path
         d="m 102.16198,108.8159 h 4.27691 v -3.11278 l 1.34128,-1.51843 2.8091,4.63121 h 4.85899 l -4.85899,-7.36439 4.83368,-5.719428 h -4.85898 l -4.12508,5.137358 v -9.743268 h -4.27691 z"
         style="font-weight:800;-inkscape-font-specification:'Metropolis Ultra-Bold'"
         id="path1218" /><path
         d="m 126.53073,109.11959 c 2.30296,0 4.12507,-0.93637 5.41574,-2.40418 l -2.8344,-2.32827 c -0.60738,0.6833 -1.61966,1.16414 -2.53072,1.16414 -1.72089,0 -3.1634,-1.51844 -3.1634,-3.31525 0,-1.74619 1.44251,-3.239319 3.13809,-3.239319 0.91106,0 1.89804,0.480837 2.4801,1.113519 l 2.83441,-2.353572 c -1.26536,-1.417203 -3.06217,-2.328262 -5.2892,-2.328262 -3.94793,0 -7.28848,3.112786 -7.28848,6.832944 0,3.72016 3.31525,6.85825 7.23786,6.85825 z"
         style="font-weight:800;-inkscape-font-specification:'Metropolis Ultra-Bold'"
         id="path1220" /><path
         d="m 133.84454,108.8159 h 4.27691 V 91.126172 h -4.27691 z"
         style="font-weight:800;-inkscape-font-specification:'Metropolis Ultra-Bold'"
         id="path1222" /><path
         d="m 149.50969,95.732082 v 7.541548 c 0,1.29067 -0.98698,2.27765 -2.30295,2.27765 -1.31598,0 -2.25234,-1.01229 -2.25234,-2.4548 v -7.364398 h -4.09977 v 8.326068 c 0,2.96094 1.99927,5.06144 4.83367,5.06144 1.64497,0 3.01156,-0.68329 3.82139,-1.7715 v 1.46781 h 4.27692 V 95.732082 Z"
         style="font-weight:800;-inkscape-font-specification:'Metropolis Ultra-Bold'"
         id="path1224" /><path
         d="m 165.3773,95.428396 c -1.77151,0 -3.26463,0.733909 -4.30223,1.999269 v -6.301493 h -4.27691 V 108.8159 h 4.27691 v -1.69558 c 1.0376,1.26536 2.53072,1.99927 4.30223,1.99927 3.49239,0 5.9978,-2.83441 5.9978,-6.85825 0,-3.998538 -2.50541,-6.832944 -5.9978,-6.832944 z m -1.31598,10.122884 c -1.74619,0 -2.98625,-1.36659 -2.98625,-3.28994 0,-1.89804 1.24006,-3.264629 2.98625,-3.264629 1.87274,0 3.18871,1.366589 3.18871,3.264629 0,1.92335 -1.31597,3.28994 -3.18871,3.28994 z"
         style="font-weight:800;-inkscape-font-specification:'Metropolis Ultra-Bold'"
         id="path1226" /></g></g></svg>
