<?xml version="1.0" encoding="UTF-8" standalone="no"?>
<!-- Created with Inkscape (http://www.inkscape.org/) -->

<svg
   width="164.37511"
   height="55.379021"
   viewBox="0 0 164.37511 55.379021"
   version="1.1"
   id="svg5"
   xml:space="preserve"
   xmlns="http://www.w3.org/2000/svg"
   xmlns:svg="http://www.w3.org/2000/svg"><defs
     id="defs2" /><g
     id="layer1"
     transform="translate(-7.0000019,-62.310486)"><path
       d="m 37.766124,97.178758 v 11.280912 l 3.076612,3.07661 3.076612,-3.07661 V 97.178758 Z m -24.612898,0 v 11.280912 l 3.076612,3.07661 3.076612,-3.07661 V 97.178758 Z m 12.306449,6.153222 v 11.28091 l 3.076612,3.07662 3.076612,-3.07662 v -11.28091 z m 12.306449,-5.845561 v 10.973251 l 3.076612,3.07661 3.076612,-3.07661 V 97.486419 Z"
       id="path437"
       style="fill:#808080;fill-opacity:1;stroke-width:0.205107" /><circle
       cx="28.536287"
       cy="83.846771"
       r="21.536285"
       id="circle435"
       style="fill:#999999;fill-opacity:1;stroke-width:0.205107" /><circle
       cx="28.536287"
       cy="83.846771"
       r="15.383061"
       fill="#c6202e"
       id="circle441"
       style="fill:#217844;fill-opacity:1;stroke-width:0.205107" /><path
       d="m 28.536287,79.39594 4.471343,-3.240698 -0.615322,5.476369 5.045644,2.215161 -5.045644,2.235672 0.615322,5.476369 -4.471343,-3.261209 -4.450832,3.261209 0.594812,-5.476369 -5.066155,-2.235672 5.066155,-2.215161 -0.594812,-5.476369 z"
       fill="#f8f1e0"
       id="path443"
       style="fill:#ffffff;stroke-width:0.205107" /><text
       xml:space="preserve"
       style="font-style:normal;font-variant:normal;font-weight:900;font-stretch:normal;font-size:25.3072px;line-height:0.8;font-family:Metropolis;-inkscape-font-specification:'Metropolis Heavy';text-align:start;letter-spacing:0px;text-anchor:start;fill:#162c4a;fill-opacity:1;stroke:none;stroke-width:4.97288;paint-order:stroke markers fill;stop-color:#000000"
       x="57.165771"
       y="88.570145"
       id="text1467"><tspan
         id="tspan1465"
         x="57.165771"
         y="88.570145"
         style="font-style:normal;font-variant:normal;font-weight:500;font-stretch:normal;font-family:Metropolis;-inkscape-font-specification:'Metropolis Medium';fill:#162c4a;fill-opacity:1;stroke-width:4.97288">tulsa</tspan><tspan
         x="57.165771"
         y="108.8159"
         id="tspan1469"
         dx="0 0 0 0 0 -3.95 0"
         style="font-style:normal;font-variant:normal;font-weight:800;font-stretch:normal;font-family:Metropolis;-inkscape-font-specification:'Metropolis Ultra-Bold';fill:#162c4a;fill-opacity:1;stroke-width:4.97288">hack club</tspan></text></g></svg>
