<?xml version="1.0" encoding="UTF-8" standalone="no"?>
<!-- Created with Inkscape (http://www.inkscape.org/) -->

<svg
   width="112.61493"
   height="38.239182"
   viewBox="0 0 112.61493 38.239182"
   version="1.1"
   id="svg5"
   xml:space="preserve"
   xmlns="http://www.w3.org/2000/svg"
   xmlns:svg="http://www.w3.org/2000/svg"><defs
     id="defs2" /><g
     id="layer1"
     transform="translate(-515.3252,-129.41792)"><g
       aria-label="tulsa
hack club"
       id="text1467-2"
       style="font-weight:900;font-size:25.3072px;line-height:0.8;font-family:Metropolis;-inkscape-font-specification:'Metropolis Heavy';letter-spacing:0px;fill:#186988;stroke-width:4.97288;paint-order:stroke markers fill;stop-color:#000000"><path
         d="m 551.67793,144.75408 c -0.27838,0.27838 -0.78452,0.48084 -1.34128,0.48084 -0.73391,0 -1.34128,-0.65799 -1.34128,-1.56905 v -7.51624 h 3.08748 v -2.1258 h -3.08748 v -3.59362 h -2.4548 v 3.59362 h -1.97396 v 2.1258 h 1.97396 v 7.69339 c 0,2.1005 1.41721,3.56832 3.44178,3.56832 0.93637,0 1.89804,-0.3543 2.60664,-0.93637 z"
         style="font-weight:500;-inkscape-font-specification:'Metropolis Medium';text-align:center;text-anchor:middle"
         id="path2551" /><path
         d="m 563.5976,134.02383 v 8.12361 c 0,1.72089 -1.61966,3.08748 -3.61893,3.08748 -1.7715,0 -2.98624,-1.34128 -2.98624,-3.31525 v -7.89584 h -2.4548 v 8.32607 c 0,3.01155 1.99927,5.06144 4.88429,5.06144 1.79681,0 3.41647,-0.91106 4.17568,-2.22704 v 1.92335 h 2.50542 v -13.08382 z"
         style="font-weight:500;-inkscape-font-specification:'Metropolis Medium';text-align:center;text-anchor:middle"
         id="path2553" /><path
         d="m 569.03866,147.10765 h 2.50541 v -17.68973 h -2.50541 z"
         style="font-weight:500;-inkscape-font-specification:'Metropolis Medium';text-align:center;text-anchor:middle"
         id="path2555" /><path
         d="m 579.11094,147.41134 c 2.85971,0 4.96021,-1.56905 4.96021,-4.04915 0,-2.60665 -2.27765,-3.31525 -4.45407,-3.94793 -2.20173,-0.68329 -3.08748,-0.98698 -3.08748,-1.99927 0,-1.08821 1.0629,-1.67027 2.37888,-1.67027 1.18944,0 2.50541,0.45553 3.77077,1.26536 l 1.0629,-1.77151 c -1.4172,-0.93636 -3.13809,-1.51843 -4.83367,-1.51843 -2.75849,0 -4.75775,1.56905 -4.75775,3.97323 0,2.12581 1.49312,2.98625 4.50468,3.82139 1.67027,0.45553 3.03686,0.86044 3.03686,2.1005 0,1.0629 -1.01229,1.7715 -2.55603,1.7715 -1.44251,0 -3.01155,-0.58206 -4.45406,-1.64497 l -1.16413,1.72089 c 1.59435,1.26536 3.66954,1.94866 5.59289,1.94866 z"
         style="font-weight:500;-inkscape-font-specification:'Metropolis Medium';text-align:center;text-anchor:middle"
         id="path2557" /><path
         d="m 591.76456,133.72014 c -1.44251,0 -3.08748,0.37961 -4.96021,1.31598 l 0.93636,1.84742 c 1.13883,-0.58206 2.37888,-1.08821 3.66955,-1.08821 2.60664,0 3.36586,1.7462 3.36586,3.39117 v 0.40491 c -1.26536,-0.43022 -2.65726,-0.7086 -3.94793,-0.7086 -2.88502,0 -5.23859,1.7462 -5.23859,4.35284 0,2.55603 2.07519,4.17569 4.83368,4.17569 1.61966,0 3.39116,-0.73391 4.35284,-2.07519 v 1.7715 h 2.45479 v -7.92115 c 0,-3.23932 -1.94865,-5.46636 -5.46635,-5.46636 z m -0.83514,11.71724 c -1.67027,0 -2.93563,-0.86045 -2.93563,-2.27765 0,-1.41721 1.46781,-2.40419 3.21401,-2.40419 1.29067,0 2.48011,0.17715 3.56832,0.50615 v 1.74619 c -0.43023,1.61967 -2.22704,2.4295 -3.8467,2.4295 z"
         style="font-weight:500;-inkscape-font-specification:'Metropolis Medium';text-align:center;text-anchor:middle"
         id="path2559" /><path
         d="m 523.42348,153.9659 c -1.64497,0 -3.03687,0.6833 -3.82139,1.79681 v -6.09903 h -4.27692 v 17.68973 h 4.27692 v -7.54154 c 0,-1.29067 1.01229,-2.27765 2.32826,-2.27765 1.31598,0 2.22703,1.01229 2.22703,2.4548 v 7.36439 h 4.09977 v -8.32607 c 0,-2.96094 -1.99927,-5.06144 -4.83367,-5.06144 z"
         style="font-weight:800;-inkscape-font-specification:'Metropolis Ultra-Bold';text-align:center;text-anchor:middle"
         id="path2561" /><path
         d="m 536.65913,153.9659 c -2.02458,0 -3.89731,0.58207 -5.71943,1.49313 l 1.36659,2.75848 c 1.01229,-0.50614 2.1005,-0.83514 3.26463,-0.83514 1.92335,0 2.85971,0.93637 2.85971,2.20173 v 0.17715 c -1.01229,-0.40491 -2.1005,-0.63268 -3.06217,-0.63268 -3.08748,0 -5.49166,1.79681 -5.49166,4.35284 0,2.4801 2.1258,4.17569 4.9349,4.17569 1.34128,0 2.70787,-0.50615 3.61893,-1.44251 v 1.13882 h 4.12508 v -7.76931 c 0,-3.49239 -2.53072,-5.6182 -5.89658,-5.6182 z m -0.83514,10.85679 c -1.0629,0 -1.87273,-0.58206 -1.87273,-1.46782 0,-0.88575 0.88575,-1.54374 2.02457,-1.54374 0.88576,0 1.7462,0.17715 2.4548,0.50615 v 0.91106 c -0.17715,0.98698 -1.31597,1.59435 -2.60664,1.59435 z"
         style="font-weight:800;-inkscape-font-specification:'Metropolis Ultra-Bold';text-align:center;text-anchor:middle"
         id="path2563" /><path
         d="m 551.41322,167.6571 c 2.30295,0 4.12507,-0.93637 5.41574,-2.40419 l -2.83441,-2.32826 c -0.60737,0.6833 -1.61966,1.16413 -2.53072,1.16413 -1.72089,0 -3.1634,-1.51843 -3.1634,-3.31524 0,-1.7462 1.44251,-3.23932 3.1381,-3.23932 0.91106,0 1.89804,0.48083 2.4801,1.11351 l 2.83441,-2.35357 c -1.26536,-1.4172 -3.06217,-2.32826 -5.28921,-2.32826 -3.94792,0 -7.28847,3.11279 -7.28847,6.83295 0,3.72015 3.31524,6.85825 7.23786,6.85825 z"
         style="font-weight:800;-inkscape-font-specification:'Metropolis Ultra-Bold';text-align:center;text-anchor:middle"
         id="path2565" /><path
         d="m 558.72702,167.35341 h 4.27692 v -3.11278 l 1.34128,-1.51844 2.8091,4.63122 h 4.85898 l -4.85898,-7.36439 4.83368,-5.71943 h -4.85899 l -4.12507,5.13736 v -9.74327 h -4.27692 z"
         style="font-weight:800;-inkscape-font-specification:'Metropolis Ultra-Bold';text-align:center;text-anchor:middle"
         id="path2567" /><path
         d="m 583.09578,167.6571 c 2.30295,0 4.12507,-0.93637 5.41574,-2.40419 l -2.83441,-2.32826 c -0.60737,0.6833 -1.61966,1.16413 -2.53072,1.16413 -1.72089,0 -3.1634,-1.51843 -3.1634,-3.31524 0,-1.7462 1.44251,-3.23932 3.1381,-3.23932 0.91106,0 1.89804,0.48083 2.4801,1.11351 l 2.83441,-2.35357 c -1.26536,-1.4172 -3.06217,-2.32826 -5.28921,-2.32826 -3.94792,0 -7.28847,3.11279 -7.28847,6.83295 0,3.72015 3.31524,6.85825 7.23786,6.85825 z"
         style="font-weight:800;-inkscape-font-specification:'Metropolis Ultra-Bold';text-align:center;text-anchor:middle"
         id="path2569" /><path
         d="m 590.40958,167.35341 h 4.27692 v -17.68973 h -4.27692 z"
         style="font-weight:800;-inkscape-font-specification:'Metropolis Ultra-Bold';text-align:center;text-anchor:middle"
         id="path2571" /><path
         d="m 606.07474,154.26959 v 7.54154 c 0,1.29067 -0.98698,2.27765 -2.30296,2.27765 -1.31597,0 -2.25234,-1.01229 -2.25234,-2.4548 v -7.36439 h -4.09976 v 8.32607 c 0,2.96094 1.99927,5.06144 4.83367,5.06144 1.64497,0 3.01156,-0.6833 3.82139,-1.77151 v 1.46782 h 4.27692 v -13.08382 z"
         style="font-weight:800;-inkscape-font-specification:'Metropolis Ultra-Bold';text-align:center;text-anchor:middle"
         id="path2573" /><path
         d="m 621.94235,153.9659 c -1.77151,0 -3.26463,0.73391 -4.30223,1.99927 v -6.30149 h -4.27692 v 17.68973 h 4.27692 v -1.69558 c 1.0376,1.26536 2.53072,1.99927 4.30223,1.99927 3.49239,0 5.9978,-2.83441 5.9978,-6.85825 0,-3.99854 -2.50541,-6.83295 -5.9978,-6.83295 z m -1.31598,10.12288 c -1.7462,0 -2.98625,-1.36659 -2.98625,-3.28993 0,-1.89804 1.24005,-3.26463 2.98625,-3.26463 1.87273,0 3.18871,1.36659 3.18871,3.26463 0,1.92334 -1.31598,3.28993 -3.18871,3.28993 z"
         style="font-weight:800;-inkscape-font-specification:'Metropolis Ultra-Bold';text-align:center;text-anchor:middle"
         id="path2575" /></g></g></svg>
